<?xml version="1.0" standalone="no"?>
<!DOCTYPE svg PUBLIC "-//W3C//DTD SVG 20010904//EN"
 "http://www.w3.org/TR/2001/REC-SVG-20010904/DTD/svg10.dtd">
<svg version="1.0" xmlns="http://www.w3.org/2000/svg"
 width="500.000000pt" height="500.000000pt" viewBox="0 0 500.000000 500.000000"
 preserveAspectRatio="xMidYMid meet">

<g transform="translate(0.000000,500.000000) scale(0.100000,-0.100000)"
fill="#000000" stroke="none">
<path d="M610 3066 c0 -2 8 -10 18 -17 15 -13 16 -12 3 4 -13 16 -21 21 -21
13z"/>
<path d="M603 3031 c1 -12 5 -21 9 -21 4 0 8 -4 8 -10 0 -5 -6 -7 -13 -4 -18
6 -42 -22 -27 -31 5 -3 10 1 10 9 0 9 4 16 10 16 5 0 6 -8 3 -17 -6 -16 -5
-16 10 -4 9 7 17 10 17 5 0 -4 5 -3 11 3 7 7 36 9 78 6 44 -3 61 -1 52 5 -8 6
-21 8 -29 4 -11 -4 -13 -1 -7 8 6 9 4 11 -4 6 -7 -5 -18 0 -27 10 -14 18 -14
18 -7 0 4 -13 3 -17 -4 -13 -6 4 -14 1 -17 -5 -3 -7 -3 -3 0 9 4 19 2 22 -12
16 -13 -5 -15 -3 -9 7 5 8 4 11 -3 7 -5 -4 -8 -16 -5 -26 3 -10 -1 -22 -8 -26
-8 -5 -10 -4 -5 4 4 6 -2 23 -13 37 -18 23 -20 24 -18 5z"/>
<path d="M1054 2861 c4 -6 0 -14 -8 -17 -9 -3 -13 -10 -10 -15 3 -5 0 -9 -6
-9 -8 0 -7 -6 1 -21 8 -16 8 -24 -1 -33 -8 -8 -10 -7 -5 5 4 10 0 20 -7 25 -7
4 -10 4 -7 0 4 -4 -3 -18 -15 -31 -29 -32 -38 -44 -65 -89 -20 -31 -21 -40
-10 -47 8 -5 18 -9 22 -9 5 0 33 -23 62 -51 36 -34 56 -47 58 -38 2 8 11 37
20 65 20 62 21 78 5 68 -7 -4 -4 4 8 17 28 33 53 111 36 117 -7 2 -12 11 -11
20 0 11 2 12 6 5 7 -18 23 -16 23 2 0 14 -18 20 -49 16 -8 -2 -10 3 -5 11 4 7
4 10 -1 6 -4 -4 -17 -3 -28 3 -14 8 -18 8 -13 0z"/>
<path d="M407 2674 c-3 -3 -4 -11 -1 -18 4 -11 -50 -148 -110 -278 -14 -31
-26 -61 -26 -66 0 -13 98 -55 114 -49 8 3 50 54 94 114 l80 108 -31 17 c-18 9
-42 27 -55 41 -25 27 -65 121 -55 131 4 3 4 6 1 6 -2 0 -7 -3 -11 -6z"/>
<path d="M1072 2468 c-6 -24 -16 -66 -22 -93 -22 -103 -78 -166 -184 -209 -65
-26 -62 -29 44 -52 108 -23 104 -25 125 65 10 44 21 84 24 89 3 5 25 19 47 30
l41 21 -16 93 c-12 67 -21 94 -33 96 -11 2 -18 -10 -26 -40z"/>
<path d="M566 2139 c10 -12 40 -39 65 -60 l46 -38 51 52 51 52 -67 0 c-37 0
-89 3 -116 8 l-49 7 19 -21z"/>
</g>
</svg>
